<mxfile host="Electron" modified="2024-05-11T09:28:42.346Z" agent="Mozilla/5.0 (Windows NT 10.0; Win64; x64) AppleWebKit/537.36 (KHTML, like Gecko) draw.io/24.2.5 Chrome/120.0.6099.109 Electron/28.1.0 Safari/537.36" etag="al-KOkuCynJ5pwdRkhl2" version="24.2.5" type="device">
  <diagram name="Pagina-1" id="mAXGtVOrH3MtF-w1XDcS">
    <mxGraphModel dx="1527" dy="414" grid="1" gridSize="10" guides="1" tooltips="1" connect="1" arrows="1" fold="1" page="1" pageScale="1" pageWidth="827" pageHeight="1169" math="0" shadow="0">
      <root>
        <mxCell id="0" />
        <mxCell id="1" parent="0" />
        <mxCell id="W-US1pay6F3QZVfCUJeG-1" value="Avatar" style="whiteSpace=wrap;html=1;align=center;" vertex="1" parent="1">
          <mxGeometry x="-523.12" y="153.5" width="60" height="30" as="geometry" />
        </mxCell>
        <mxCell id="W-US1pay6F3QZVfCUJeG-2" value="&lt;font style=&quot;font-size: 8px;&quot;&gt;Punteggio&lt;/font&gt;" style="text;html=1;align=center;verticalAlign=middle;whiteSpace=wrap;rounded=1;strokeColor=none;" vertex="1" parent="1">
          <mxGeometry x="-543" y="120" width="49" height="23" as="geometry" />
        </mxCell>
        <mxCell id="W-US1pay6F3QZVfCUJeG-3" style="edgeStyle=orthogonalEdgeStyle;rounded=0;orthogonalLoop=1;jettySize=auto;html=1;exitX=0;exitY=0.25;exitDx=0;exitDy=0;endArrow=oval;endFill=1;" edge="1" parent="1">
          <mxGeometry relative="1" as="geometry">
            <mxPoint x="-543.12" y="162.23000000000002" as="targetPoint" />
            <mxPoint x="-523.12" y="162" as="sourcePoint" />
            <Array as="points">
              <mxPoint x="-533.12" y="162.23000000000002" />
            </Array>
          </mxGeometry>
        </mxCell>
        <mxCell id="W-US1pay6F3QZVfCUJeG-4" value="&lt;font style=&quot;font-size: 8px;&quot;&gt;Nickname&lt;/font&gt;" style="text;html=1;align=center;verticalAlign=middle;whiteSpace=wrap;rounded=1;strokeColor=none;" vertex="1" parent="1">
          <mxGeometry x="-560" y="138.5" width="30" height="23.5" as="geometry" />
        </mxCell>
        <mxCell id="W-US1pay6F3QZVfCUJeG-6" style="edgeStyle=orthogonalEdgeStyle;rounded=0;orthogonalLoop=1;jettySize=auto;html=1;exitX=0.152;exitY=-0.053;exitDx=0;exitDy=0;endArrow=oval;endFill=0;exitPerimeter=0;" edge="1" parent="1">
          <mxGeometry relative="1" as="geometry">
            <mxPoint x="-519" y="142" as="targetPoint" />
            <mxPoint x="-518.77" y="153.40999999999997" as="sourcePoint" />
            <Array as="points">
              <mxPoint x="-518.77" y="146" />
            </Array>
          </mxGeometry>
        </mxCell>
      </root>
    </mxGraphModel>
  </diagram>
</mxfile>
